<mxfile host="app.diagrams.net" agent="Mozilla/5.0 (Windows NT 10.0; Win64; x64) AppleWebKit/537.36 (KHTML, like Gecko) Chrome/134.0.0.0 Safari/537.36" version="26.1.0">
  <diagram name="Página-1" id="3SWszS-pTiEVkhqC4QlT">
    <mxGraphModel dx="880" dy="434" grid="1" gridSize="10" guides="1" tooltips="1" connect="1" arrows="1" fold="1" page="1" pageScale="1" pageWidth="827" pageHeight="1169" math="0" shadow="0">
      <root>
        <mxCell id="0" />
        <mxCell id="1" parent="0" />
        <mxCell id="S9_l6ywXK0WssfpnNPne-1" value="&lt;span style=&quot;font-size:12.0pt;line-height:&amp;lt;br/&amp;gt;107%;font-family:&amp;quot;Arial&amp;quot;,sans-serif;mso-fareast-font-family:Calibri;mso-fareast-theme-font:&amp;lt;br/&amp;gt;minor-latin;mso-ansi-language:ES;mso-fareast-language:EN-US;mso-bidi-language:&amp;lt;br/&amp;gt;AR-SA&quot; lang=&quot;ES&quot;&gt;Must-haves&lt;/span&gt;&lt;div&gt;&lt;span style=&quot;font-size:12.0pt;line-height:&amp;lt;br/&amp;gt;107%;font-family:&amp;quot;Arial&amp;quot;,sans-serif;mso-fareast-font-family:Calibri;mso-fareast-theme-font:&amp;lt;br/&amp;gt;minor-latin;mso-ansi-language:ES;mso-fareast-language:EN-US;mso-bidi-language:&amp;lt;br/&amp;gt;AR-SA&quot; lang=&quot;ES&quot;&gt;(Tareas criticas)&lt;/span&gt;&lt;/div&gt;" style="rounded=1;whiteSpace=wrap;html=1;fillColor=#60a917;strokeColor=#2D7600;fontColor=#ffffff;" vertex="1" parent="1">
          <mxGeometry x="40" y="40" width="150" height="60" as="geometry" />
        </mxCell>
        <mxCell id="S9_l6ywXK0WssfpnNPne-2" value="&lt;span style=&quot;font-size:12.0pt;line-height:&amp;lt;br/&amp;gt;107%;font-family:&amp;quot;Arial&amp;quot;,sans-serif;mso-fareast-font-family:Calibri;mso-fareast-theme-font:&amp;lt;br/&amp;gt;minor-latin;mso-ansi-language:ES;mso-fareast-language:EN-US;mso-bidi-language:&amp;lt;br/&amp;gt;AR-SA&quot; lang=&quot;ES&quot;&gt;Should-haves&amp;nbsp;&lt;/span&gt;&lt;div&gt;&lt;span style=&quot;font-size:12.0pt;line-height:&amp;lt;br/&amp;gt;107%;font-family:&amp;quot;Arial&amp;quot;,sans-serif;mso-fareast-font-family:Calibri;mso-fareast-theme-font:&amp;lt;br/&amp;gt;minor-latin;mso-ansi-language:ES;mso-fareast-language:EN-US;mso-bidi-language:&amp;lt;br/&amp;gt;AR-SA&quot; lang=&quot;ES&quot;&gt;(tareas no criticas)&lt;/span&gt;&lt;/div&gt;" style="rounded=1;whiteSpace=wrap;html=1;fillColor=#FFFF00;strokeColor=#B09500;fontColor=#000000;" vertex="1" parent="1">
          <mxGeometry x="220" y="40" width="170" height="60" as="geometry" />
        </mxCell>
        <mxCell id="S9_l6ywXK0WssfpnNPne-3" value="&lt;span style=&quot;font-size:12.0pt;line-height:&amp;lt;br/&amp;gt;107%;font-family:&amp;quot;Arial&amp;quot;,sans-serif;mso-fareast-font-family:Calibri;mso-fareast-theme-font:&amp;lt;br/&amp;gt;minor-latin;mso-ansi-language:ES;mso-fareast-language:EN-US;mso-bidi-language:&amp;lt;br/&amp;gt;AR-SA&quot; lang=&quot;ES&quot;&gt;Won&#39;t-haves&lt;/span&gt;&lt;div&gt;&lt;span style=&quot;font-size:12.0pt;line-height:&amp;lt;br/&amp;gt;107%;font-family:&amp;quot;Arial&amp;quot;,sans-serif;mso-fareast-font-family:Calibri;mso-fareast-theme-font:&amp;lt;br/&amp;gt;minor-latin;mso-ansi-language:ES;mso-fareast-language:EN-US;mso-bidi-language:&amp;lt;br/&amp;gt;AR-SA&quot; lang=&quot;ES&quot;&gt;(tarea para mas adelante)&lt;/span&gt;&lt;/div&gt;" style="rounded=1;whiteSpace=wrap;html=1;fillColor=#e51400;strokeColor=#B20000;fontColor=#ffffff;" vertex="1" parent="1">
          <mxGeometry x="615" y="40" width="165" height="60" as="geometry" />
        </mxCell>
        <mxCell id="S9_l6ywXK0WssfpnNPne-4" value="&lt;span style=&quot;font-size:12.0pt;line-height:&amp;lt;br/&amp;gt;107%;font-family:&amp;quot;Arial&amp;quot;,sans-serif;mso-fareast-font-family:Calibri;mso-fareast-theme-font:&amp;lt;br/&amp;gt;minor-latin;mso-ansi-language:ES;mso-fareast-language:EN-US;mso-bidi-language:&amp;lt;br/&amp;gt;AR-SA&quot; lang=&quot;ES&quot;&gt;Could-haves&lt;/span&gt;&lt;div&gt;&lt;span style=&quot;font-size:12.0pt;line-height:&amp;lt;br/&amp;gt;107%;font-family:&amp;quot;Arial&amp;quot;,sans-serif;mso-fareast-font-family:Calibri;mso-fareast-theme-font:&amp;lt;br/&amp;gt;minor-latin;mso-ansi-language:ES;mso-fareast-language:EN-US;mso-bidi-language:&amp;lt;br/&amp;gt;AR-SA&quot; lang=&quot;ES&quot;&gt;(Tareas solo si alcanzamos)&lt;/span&gt;&lt;/div&gt;" style="rounded=1;whiteSpace=wrap;html=1;fillColor=#fa6800;strokeColor=#C73500;fontColor=#000000;" vertex="1" parent="1">
          <mxGeometry x="420" y="40" width="160" height="60" as="geometry" />
        </mxCell>
        <mxCell id="S9_l6ywXK0WssfpnNPne-5" value="&lt;span style=&quot;font-size:12.0pt;line-height:&amp;lt;br/&amp;gt;107%;font-family:&amp;quot;Arial&amp;quot;,sans-serif;mso-fareast-font-family:Calibri;mso-fareast-theme-font:&amp;lt;br/&amp;gt;minor-latin;mso-ansi-language:ES;mso-fareast-language:EN-US;mso-bidi-language:&amp;lt;br/&amp;gt;AR-SA&quot; lang=&quot;ES&quot;&gt;Definir y configurar los conceptos de liquidación&lt;/span&gt;" style="rounded=1;whiteSpace=wrap;html=1;fillColor=#f8cecc;strokeColor=#b85450;" vertex="1" parent="1">
          <mxGeometry x="40" y="120" width="150" height="80" as="geometry" />
        </mxCell>
        <mxCell id="S9_l6ywXK0WssfpnNPne-6" value="&lt;span style=&quot;font-size:12.0pt;line-height:&amp;lt;br/&amp;gt;107%;font-family:&amp;quot;Arial&amp;quot;,sans-serif;mso-fareast-font-family:Calibri;mso-fareast-theme-font:&amp;lt;br/&amp;gt;minor-latin;mso-ansi-language:ES;mso-fareast-language:EN-US;mso-bidi-language:&amp;lt;br/&amp;gt;AR-SA&quot; lang=&quot;ES&quot;&gt; Integrar métodos de pago&lt;/span&gt;" style="rounded=1;whiteSpace=wrap;html=1;fillColor=#f8cecc;strokeColor=#b85450;" vertex="1" parent="1">
          <mxGeometry x="615" y="115" width="165" height="60" as="geometry" />
        </mxCell>
        <mxCell id="S9_l6ywXK0WssfpnNPne-7" value="&lt;span style=&quot;font-size:12.0pt;line-height:&amp;lt;br/&amp;gt;107%;font-family:&amp;quot;Arial&amp;quot;,sans-serif;mso-fareast-font-family:Calibri;mso-fareast-theme-font:&amp;lt;br/&amp;gt;minor-latin;mso-ansi-language:ES;mso-fareast-language:EN-US;mso-bidi-language:&amp;lt;br/&amp;gt;AR-SA&quot; lang=&quot;ES&quot;&gt;Permitir la personalización de las facturas&lt;/span&gt;" style="rounded=1;whiteSpace=wrap;html=1;fillColor=#f8cecc;strokeColor=#b85450;" vertex="1" parent="1">
          <mxGeometry x="220" y="115" width="170" height="85" as="geometry" />
        </mxCell>
        <mxCell id="S9_l6ywXK0WssfpnNPne-8" value="&lt;span style=&quot;font-size:12.0pt;line-height:&amp;lt;br/&amp;gt;107%;font-family:&amp;quot;Arial&amp;quot;,sans-serif;mso-fareast-font-family:Calibri;mso-fareast-theme-font:&amp;lt;br/&amp;gt;minor-latin;mso-ansi-language:ES;mso-fareast-language:EN-US;mso-bidi-language:&amp;lt;br/&amp;gt;AR-SA&quot; lang=&quot;ES&quot;&gt;Configurar descuentos&lt;/span&gt;" style="rounded=1;whiteSpace=wrap;html=1;fillColor=#f8cecc;strokeColor=#b85450;" vertex="1" parent="1">
          <mxGeometry x="220" y="220" width="170" height="60" as="geometry" />
        </mxCell>
        <mxCell id="S9_l6ywXK0WssfpnNPne-9" value="&lt;span style=&quot;font-size:12.0pt;line-height:&amp;lt;br/&amp;gt;107%;font-family:&amp;quot;Arial&amp;quot;,sans-serif;mso-fareast-font-family:Calibri;mso-fareast-theme-font:&amp;lt;br/&amp;gt;minor-latin;mso-ansi-language:ES;mso-fareast-language:EN-US;mso-bidi-language:&amp;lt;br/&amp;gt;AR-SA&quot; lang=&quot;ES&quot;&gt;Gestionar puntos de recaudo&lt;/span&gt;" style="rounded=1;whiteSpace=wrap;html=1;fillColor=#f8cecc;strokeColor=#b85450;" vertex="1" parent="1">
          <mxGeometry x="420" y="210" width="160" height="70" as="geometry" />
        </mxCell>
        <mxCell id="S9_l6ywXK0WssfpnNPne-10" value="&lt;span style=&quot;font-size:12.0pt;line-height:&amp;lt;br/&amp;gt;107%;font-family:&amp;quot;Arial&amp;quot;,sans-serif;mso-fareast-font-family:Calibri;mso-fareast-theme-font:&amp;lt;br/&amp;gt;minor-latin;mso-ansi-language:ES;mso-fareast-language:EN-US;mso-bidi-language:&amp;lt;br/&amp;gt;AR-SA&quot; lang=&quot;ES&quot;&gt; Gestionar el recaudo&lt;/span&gt;" style="rounded=1;whiteSpace=wrap;html=1;fillColor=#f8cecc;strokeColor=#b85450;" vertex="1" parent="1">
          <mxGeometry x="40" y="440" width="150" height="80" as="geometry" />
        </mxCell>
        <mxCell id="S9_l6ywXK0WssfpnNPne-11" value="&lt;span style=&quot;font-size:12.0pt;line-height:&amp;lt;br/&amp;gt;107%;font-family:&amp;quot;Arial&amp;quot;,sans-serif;mso-fareast-font-family:Calibri;mso-fareast-theme-font:&amp;lt;br/&amp;gt;minor-latin;mso-ansi-language:ES;mso-fareast-language:EN-US;mso-bidi-language:&amp;lt;br/&amp;gt;AR-SA&quot; lang=&quot;ES&quot;&gt;Definir tarifas personalizadas para los conceptos creados&lt;/span&gt;" style="rounded=1;whiteSpace=wrap;html=1;fillColor=#f8cecc;strokeColor=#b85450;" vertex="1" parent="1">
          <mxGeometry x="40" y="220" width="150" height="100" as="geometry" />
        </mxCell>
        <mxCell id="S9_l6ywXK0WssfpnNPne-12" value="&lt;span style=&quot;font-size:12.0pt;line-height:&amp;lt;br/&amp;gt;107%;font-family:&amp;quot;Arial&amp;quot;,sans-serif;mso-fareast-font-family:Calibri;mso-fareast-theme-font:&amp;lt;br/&amp;gt;minor-latin;mso-ansi-language:ES;mso-fareast-language:EN-US;mso-bidi-language:&amp;lt;br/&amp;gt;AR-SA&quot; lang=&quot;ES&quot;&gt; Automatizar el proceso de facturación&lt;/span&gt;" style="rounded=1;whiteSpace=wrap;html=1;fillColor=#f8cecc;strokeColor=#b85450;" vertex="1" parent="1">
          <mxGeometry x="40" y="340" width="150" height="80" as="geometry" />
        </mxCell>
        <mxCell id="S9_l6ywXK0WssfpnNPne-13" value="&lt;span style=&quot;font-size:12.0pt;line-height:&amp;lt;br/&amp;gt;107%;font-family:&amp;quot;Arial&amp;quot;,sans-serif;mso-fareast-font-family:Calibri;mso-fareast-theme-font:&amp;lt;br/&amp;gt;minor-latin;mso-ansi-language:ES;mso-fareast-language:EN-US;mso-bidi-language:&amp;lt;br/&amp;gt;AR-SA&quot; lang=&quot;ES&quot;&gt;Gestionar tipos de documentos&lt;/span&gt;" style="rounded=1;whiteSpace=wrap;html=1;fillColor=#f8cecc;strokeColor=#b85450;" vertex="1" parent="1">
          <mxGeometry x="420" y="120" width="160" height="70" as="geometry" />
        </mxCell>
        <mxCell id="S9_l6ywXK0WssfpnNPne-14" value="&lt;span style=&quot;font-size:12.0pt;line-height:&amp;lt;br/&amp;gt;107%;font-family:&amp;quot;Arial&amp;quot;,sans-serif;mso-fareast-font-family:Calibri;mso-fareast-theme-font:&amp;lt;br/&amp;gt;minor-latin;mso-ansi-language:ES;mso-fareast-language:EN-US;mso-bidi-language:&amp;lt;br/&amp;gt;AR-SA&quot; lang=&quot;ES&quot;&gt;Integrar facturacion y recaudo con el sistema contable y presupuestal&lt;/span&gt;" style="rounded=1;whiteSpace=wrap;html=1;fillColor=#f8cecc;strokeColor=#b85450;" vertex="1" parent="1">
          <mxGeometry x="615" y="200" width="170" height="80" as="geometry" />
        </mxCell>
        <mxCell id="S9_l6ywXK0WssfpnNPne-15" value="&lt;span style=&quot;font-size:12.0pt;line-height:&amp;lt;br/&amp;gt;107%;font-family:&amp;quot;Arial&amp;quot;,sans-serif;mso-fareast-font-family:Calibri;mso-fareast-theme-font:&amp;lt;br/&amp;gt;minor-latin;mso-ansi-language:ES;mso-fareast-language:EN-US;mso-bidi-language:&amp;lt;br/&amp;gt;AR-SA&quot; lang=&quot;ES&quot;&gt;Informe de facturación&lt;/span&gt;" style="rounded=1;whiteSpace=wrap;html=1;fillColor=#f8cecc;strokeColor=#b85450;" vertex="1" parent="1">
          <mxGeometry x="40" y="540" width="150" height="60" as="geometry" />
        </mxCell>
        <mxCell id="S9_l6ywXK0WssfpnNPne-16" value="&lt;span style=&quot;font-size:12.0pt;line-height:&amp;lt;br/&amp;gt;107%;font-family:&amp;quot;Arial&amp;quot;,sans-serif;mso-fareast-font-family:Calibri;mso-fareast-theme-font:&amp;lt;br/&amp;gt;minor-latin;mso-ansi-language:ES;mso-fareast-language:EN-US;mso-bidi-language:&amp;lt;br/&amp;gt;AR-SA&quot; lang=&quot;ES&quot;&gt;Informe de recaudo&lt;/span&gt;" style="rounded=1;whiteSpace=wrap;html=1;fillColor=#f8cecc;strokeColor=#b85450;" vertex="1" parent="1">
          <mxGeometry x="40" y="620" width="150" height="70" as="geometry" />
        </mxCell>
      </root>
    </mxGraphModel>
  </diagram>
</mxfile>
